<svg width="10" height="10" viewBox="0 0 10 10" fill="none" xmlns="http://www.w3.org/2000/svg">
<path d="M5.0001 6.04998L1.3251 9.72498C1.1876 9.86248 1.0126 9.93123 0.800098 9.93123C0.587598 9.93123 0.412598 9.86248 0.275098 9.72498C0.137598 9.58748 0.0688477 9.41248 0.0688477 9.19998C0.0688477 8.98748 0.137598 8.81248 0.275098 8.67498L3.9501 4.99998L0.275098 1.32498C0.137598 1.18748 0.0688477 1.01248 0.0688477 0.799976C0.0688477 0.587476 0.137598 0.412476 0.275098 0.274976C0.412598 0.137476 0.587598 0.0687256 0.800098 0.0687256C1.0126 0.0687256 1.1876 0.137476 1.3251 0.274976L5.0001 3.94998L8.6751 0.274976C8.8126 0.137476 8.9876 0.0687256 9.2001 0.0687256C9.4126 0.0687256 9.5876 0.137476 9.7251 0.274976C9.8626 0.412476 9.93135 0.587476 9.93135 0.799976C9.93135 1.01248 9.8626 1.18748 9.7251 1.32498L6.0501 4.99998L9.7251 8.67498C9.8626 8.81248 9.93135 8.98748 9.93135 9.19998C9.93135 9.41248 9.8626 9.58748 9.7251 9.72498C9.5876 9.86248 9.4126 9.93123 9.2001 9.93123C8.9876 9.93123 8.8126 9.86248 8.6751 9.72498L5.0001 6.04998Z" fill="#555555"/>
</svg>
