<svg width="17" height="12" viewBox="0 0 17 12" fill="none" xmlns="http://www.w3.org/2000/svg">
<path d="M6.05021 9.15012L14.5252 0.675122C14.7252 0.475122 14.9627 0.375122 15.2377 0.375122C15.5127 0.375122 15.7502 0.475122 15.9502 0.675122C16.1502 0.875122 16.2502 1.11262 16.2502 1.38762C16.2502 1.66262 16.1502 1.90012 15.9502 2.10012L6.75021 11.3001C6.55021 11.5001 6.31687 11.6001 6.05021 11.6001C5.78354 11.6001 5.55021 11.5001 5.35021 11.3001L1.05021 7.00012C0.850207 6.80012 0.754374 6.56262 0.762707 6.28762C0.77104 6.01262 0.875207 5.77512 1.07521 5.57512C1.27521 5.37512 1.51271 5.27512 1.78771 5.27512C2.06271 5.27512 2.30021 5.37512 2.50021 5.57512L6.05021 9.15012Z" fill="#00545D"/>
</svg>
